<?xml version="1.0" ?><!DOCTYPE svg  PUBLIC '-//W3C//DTD SVG 1.1//EN'  'http://www.w3.org/Graphics/SVG/1.1/DTD/svg11.dtd'><svg enable-background="new 0 0 68.531 68" height="68px" id="Layer_1" version="1.1" viewBox="0 0 68.531 68" width="68.531px" xml:space="preserve" xmlns="http://www.w3.org/2000/svg" xmlns:xlink="http://www.w3.org/1999/xlink"><g><path fill="white" d="M34.261,28.404c-1.474,0-2.878,0.301-4.154,0.842c1.73,0.605,2.97,2.251,2.97,4.188c0,2.455-1.985,4.439-4.438,4.439   c-1.937,0-3.583-1.238-4.188-2.971c-0.543,1.278-0.842,2.682-0.842,4.155c0,5.885,4.77,10.652,10.651,10.652   c5.883,0,10.652-4.768,10.652-10.652C44.913,33.176,40.144,28.404,34.261,28.404z"/><path fill="white" d="M48.651,15.945c-6.846-4.254-15.401-5.344-23.258-2.626l0.005-0.005c3.751-2.732,8.372-4.346,13.371-4.346   c2.794,0,5.449,0.435,7.917,1.361c0.16,0.057,0.371,0.095,0.467,0.095c0.589,0,1.022-0.405,1.025-0.978   c0.002-0.391-0.191-0.715-0.441-0.946C41.202,2.484,34.26,0,34.26,0C18.768,6.194,7.375,21.179,7.048,38.301   c-0.14,4.871,1.023,9.838,3.639,14.365c1.552,2.689,3.494,5.012,5.71,6.939c-4.242-1.885-7.947-5.08-10.447-9.408   c-1.397-2.42-2.35-4.938-2.781-7.535c-0.029-0.168-0.103-0.369-0.151-0.453c-0.294-0.512-0.861-0.684-1.359-0.398   c-0.34,0.193-0.523,0.523-0.596,0.854c-1.946,8.67-0.625,15.924-0.625,15.924C13.74,69.059,32.771,71.35,47.872,62.631   c7.104-4.104,11.66-10.92,13.111-18.389l0.004,0.01c0.489,4.619-0.425,9.424-2.924,13.754c-1.396,2.418-3.099,4.504-5.135,6.178   c-0.132,0.107-0.27,0.273-0.317,0.355c-0.294,0.508-0.161,1.09,0.335,1.377c0.338,0.197,0.714,0.189,1.037,0.09   c8.48-2.65,14.104-7.422,14.104-7.422C70.462,42.12,63.229,24.812,48.651,15.945z M34.261,56.809   c-12.42,0-22.487-8.705-22.487-19.449c0-1.143,0.121-2.265,0.34-3.356c4.667-4.785,12.838-7.966,22.147-7.966   c9.308,0,17.479,3.181,22.146,7.966c0.221,1.091,0.342,2.213,0.342,3.356C56.749,48.104,46.681,56.809,34.261,56.809z"/></g></svg>